<svg xmlns="http://www.w3.org/2000/svg" width="80" height="61.865" viewBox="0 0 80 61.865">
  <g id="Artwork_22" data-name="Artwork 22" transform="translate(40 30.932)">
    <g id="Group_200" data-name="Group 200" transform="translate(-40 -30.932)">
      <path id="Path_4309" data-name="Path 4309" d="M80.025,54.466A7.008,7.008,0,0,1,75.6,60.982a11.556,11.556,0,0,1-4.3.86h-.123c-4.794,0-7.991-3.319-10.45-6.024s-3.811-3.811-5.532-3.811h0a5.778,5.778,0,0,0-2.213.492c-1.721.738-7.622,5.532-7.745,5.655a30.119,30.119,0,0,1-5.9,2.336A30.841,30.841,0,0,1,2.944,17.708l.369-.861V16.6L4.3,14.88A30.734,30.734,0,0,1,16.59,3.324,31.717,31.717,0,0,1,38.718.989a29.751,29.751,0,0,1,4.549,1.475h.369A27.415,27.415,0,0,1,52.61,8.611a31.226,31.226,0,0,1,8.974,26.8l-2.7-.369a6.147,6.147,0,0,1-5.163-5.778h0A23.112,23.112,0,0,0,47.324,15,21.022,21.022,0,0,0,36.752,8.857a24.833,24.833,0,0,0-5.778-.738A22.62,22.62,0,0,0,11.427,19.06l-.738,1.352h-.123a23.972,23.972,0,0,0-2.459,10.45,22.006,22.006,0,0,0,.738,5.409A22.866,22.866,0,0,0,37.12,52.622a22.005,22.005,0,0,0,3.934-1.475c5.286-5.04,9.835-7.376,14.138-7.376h.123c5.286,0,8.605,3.565,11.31,6.393s3.442,3.442,4.672,3.442h0c.861,0,2.95-.615,6.639-4.3a7.007,7.007,0,0,1,2.09,5.163Z" transform="translate(-0.027 0.023)" fill="#f9f7f3"/>
      <path id="Path_4310" data-name="Path 4310" d="M22,36.631V16.715a2.582,2.582,0,0,1,4.549-1.844l9.958,9.958a2.582,2.582,0,0,1,0,3.688L26.55,38.475A2.582,2.582,0,0,1,22,36.631Z" transform="translate(5.012 3.229)" fill="#f9f7f3"/>
    </g>
  </g>
</svg>
