<svg xmlns="http://www.w3.org/2000/svg" width="66.484" height="80" viewBox="0 0 66.484 80">
  <g id="Artwork_24" data-name="Artwork 24" transform="translate(33.242 40)">
    <path id="Path_4307" data-name="Path 4307" d="M65.067,53.915,46.579,8.894A14.113,14.113,0,0,0,33.172,0,14.113,14.113,0,0,0,19.905,8.894L1.417,53.915A18.065,18.065,0,0,0,6.5,74.8l3.528,2.823,1.411,1.129A5.363,5.363,0,0,0,19.764,76.5l.847-1.976,6.915-17.077A5.927,5.927,0,0,1,33.172,54.2a5.927,5.927,0,0,1,5.645,3.246L45.732,74.52l.847,1.976a5.363,5.363,0,0,0,8.468,2.258l1.411-1.129L59.986,74.8A18.065,18.065,0,0,0,65.067,53.915ZM55.047,67.04,52.93,68.733,46.579,53.491a14.343,14.343,0,0,0-26.532,0L13.555,68.875,11.438,67.04a7.9,7.9,0,0,1-2.4-9.173L27.526,12.7a5.927,5.927,0,0,1,5.645-3.246A5.927,5.927,0,0,1,38.817,12.7L57.3,57.866a7.9,7.9,0,0,1-2.4,9.173Z" transform="translate(-33.242 -40)" fill="#f9f7f3"/>
  </g>
</svg>
