<svg xmlns="http://www.w3.org/2000/svg" width="66.421" height="80" viewBox="0 0 66.421 80">
  <path id="Path_4228" data-name="Path 4228" d="M33.162,0A14.109,14.109,0,0,0,19.9,8.892L1.417,53.9A18.059,18.059,0,0,0,6.5,74.78L10.023,77.6l1.411,1.129A5.22,5.22,0,0,0,14.82,80a5.5,5.5,0,0,0,4.938-3.527L20.6,74.5l6.913-17.072a5.926,5.926,0,0,1,5.644-3.245,5.926,5.926,0,0,1,5.644,3.245L45.719,74.5l.847,1.975A5.5,5.5,0,0,0,51.644,80a5.22,5.22,0,0,0,3.386-1.27L56.441,77.6l3.527-2.822a18.059,18.059,0,0,0,5.079-20.74L46.565,8.892A14.109,14.109,0,0,0,33.162,0ZM13.551,68.854,11.434,67.02a7.9,7.9,0,0,1-2.4-9.171L27.518,12.7a5.926,5.926,0,0,1,5.644-3.245A5.926,5.926,0,0,1,38.805,12.7L57.288,57.849a7.9,7.9,0,0,1-2.4,9.171l-2.116,1.693L46.565,53.475a14.338,14.338,0,0,0-26.525,0Z"/>
</svg>
