<svg xmlns="http://www.w3.org/2000/svg" viewBox="0 0 39.18 48.09"><defs><style>.cls-1{fill:#e62f1f;}.cls-2{fill:#1d1d1b;}.cls-3{fill:#ffed00;}</style></defs><g id="Layer_2" data-name="Layer 2"><g id="Layer_1-2" data-name="Layer 1"><path class="cls-1" d="M13.64,42.88l.1.09,0-.09Z"/><path class="cls-2" d="M38.52,34.63,33,19.15,28.34,6.08A9.14,9.14,0,0,0,19.59,0a9.15,9.15,0,0,0-8.75,6.08L.67,34.63A11.56,11.56,0,0,0,3.53,46.84l1,.93a1.26,1.26,0,0,0,.82.32h7.58a1.2,1.2,0,0,0,1.13-.8l8.44-23.64a3.18,3.18,0,0,1,3.09-2.09,3.42,3.42,0,0,1,1.89.55,1.08,1.08,0,0,1,.41.57l5,14a5.52,5.52,0,0,1-1.31,5.81L27.77,46a1.2,1.2,0,0,0,.82,2.08h5.25a1.26,1.26,0,0,0,.82-.32l1-.93a9.85,9.85,0,0,0,.94-1A11.66,11.66,0,0,0,38.52,34.63Zm-21.68-13L9.58,42a1.2,1.2,0,0,1-1.95.48h0a5.52,5.52,0,0,1-1.31-5.81L16.5,8.1a3.33,3.33,0,0,1,6.19,0l2.13,6a1.21,1.21,0,0,1-.9,1.61A9.06,9.06,0,0,0,16.84,21.63Z"/><polygon class="cls-3" points="13.77 42.88 13.74 42.97 13.64 42.88 13.77 42.88"/></g></g></svg>