<svg xmlns="http://www.w3.org/2000/svg" viewBox="0 0 293.32 81.79"><g id="Layer_2" data-name="Layer 2"><g id="Layer_1-2" data-name="Layer 1"><path d="M0,7.49A6.93,6.93,0,0,1,7.14.77a6.88,6.88,0,0,1,7.15,6.72,7,7,0,0,1-7.15,6.8A7,7,0,0,1,0,7.49Zm12.83,14h0V50.28A11.28,11.28,0,0,1,1.55,61.55h0V32.71A11.28,11.28,0,0,1,12.83,21.44Z"/><path d="M51.22,21.69,48.64,32.46A11.63,11.63,0,0,0,42.87,31c-5.77,0-9.73,5.34-9.73,16.79V61.55h0A11.28,11.28,0,0,1,21.87,50.28V21.44H33.06V30c2.24-6.72,6.8-9.56,11.79-9.56A14.39,14.39,0,0,1,51.22,21.69Z"/><path d="M93.58,45.11H63.28c1.2,4.65,5,7.23,10.41,7.23a15.19,15.19,0,0,0,4.94-.82A11.29,11.29,0,0,1,90.36,54l.47.46C87,59.57,80,62.33,72.92,62.33c-12.31,0-21.35-8.44-21.35-20.83,0-13,9.81-21.1,21.35-21.1s20.83,8.1,20.83,20.41C93.75,41.93,93.67,43.3,93.58,45.11ZM82.47,37.79c-.34-4.73-4.3-7.57-9.38-7.57-4.56,0-8.61,2.15-9.81,7.57Z"/><path d="M131.12,61.55h0v-51h-7.75c-6.46,0-8.52,3.53-8.61,8.35v2.59h.09a8.69,8.69,0,0,1,8.69,8.69h-8.78V61.55h0a11.28,11.28,0,0,1-11.28-11.27V30.13h0a7.57,7.57,0,0,1-7.57-7.57V21.44h7.57v-2.5c0-12,6.2-18.94,17.65-18.94h21.35V50.19A11.36,11.36,0,0,1,131.12,61.55Z"/><path d="M150,7.49a7.16,7.16,0,0,1,14.29,0,7.15,7.15,0,0,1-14.29,0Zm1.55,14h0A11.28,11.28,0,0,1,162.8,32.71V61.55h0a11.28,11.28,0,0,1-11.28-11.27Z"/><path d="M213.34,21.44V56c0,17.57-8.87,25.75-23.08,25.75a21.34,21.34,0,0,1-19.54-12.23h0a16.33,16.33,0,0,1,14.15.79,11.68,11.68,0,0,0,5.39,1.36c7.24,0,11.8-4,11.8-14.46v-.6c-2.93,3.87-8.44,5.68-12.92,5.68-10.33,0-19.71-8-19.71-20.92s9.38-20.92,19.71-20.92c4.57,0,10,1.81,12.92,5.68V21.44Zm-11.63,20A10.42,10.42,0,1,0,191.3,51.83,10.36,10.36,0,0,0,201.71,41.41Z"/><path d="M261.63,39.52v22h0a11.28,11.28,0,0,1-11.27-11.27V40.72c0-6.37-3.79-9.21-7.67-9.21-4,0-9,2.15-9,9.47v9.3a11.28,11.28,0,0,1-11.28,11.27h0V11.28A11.28,11.28,0,0,1,233.66,0h0V27.72c1.72-5.08,8.17-7.32,12.05-7.32C256.21,20.4,261.72,27.46,261.63,39.52Z"/><path d="M293.32,30.13h-8.53V50.28a11.28,11.28,0,0,1-11.27,11.27h0V30.13H266.2V21.44h7.32V18A11.28,11.28,0,0,1,284.79,6.71h0V21.44h8.53Z"/></g></g></svg>