<svg xmlns="http://www.w3.org/2000/svg" width="84.217" height="80" viewBox="0 0 84.217 80">
  <g id="Artwork_18" data-name="Artwork 18" transform="translate(42.109 40)">
    <g id="Group_197" data-name="Group 197" transform="translate(-42.109 -40)">
      <path id="Path_4295" data-name="Path 4295" d="M66.859,60.127a8.974,8.974,0,0,1-12.714,0L35,40.982,41.282,34.7l.449.6,2.244,2.244Z" transform="translate(17.358 17.233)" fill="#f9f7f3"/>
      <g id="Group_196" data-name="Group 196">
        <path id="Path_4296" data-name="Path 4296" d="M59.383,36.818A34.1,34.1,0,0,0,21.242,8.4a33.8,33.8,0,0,0-18.7,8.675A34.252,34.252,0,0,0,.9,37.865a25.128,25.128,0,0,1,9.274-15.406,24.829,24.829,0,0,1,4.936-2.991,25.128,25.128,0,0,1,33.355,33.5A24.829,24.829,0,0,1,38.443,63.89,33.8,33.8,0,0,0,55.2,56.86l.9.9,1.2-2.543a35.449,35.449,0,0,0,1.944-6.88,34.7,34.7,0,0,0,.15-11.517Z" transform="translate(0.005 4.047)" fill="#f9f7f3"/>
        <path id="Path_4297" data-name="Path 4297" d="M58.926,10.63A34.108,34.108,0,0,0,6.575,54.156h.15a11.517,11.517,0,0,0,3.44-12.415,25.278,25.278,0,0,1,0-15.257,24.979,24.979,0,0,1,9.274-12.863l1.795-1.2a25.428,25.428,0,0,1,31.261,4.487,28.12,28.12,0,0,1,6.731,23.932,23.633,23.633,0,0,1-8.077,14.209L48.306,57c-7.927,4.487-18.4,3.44-26.175-.748a11.667,11.667,0,0,0-13.013,1.2A34.1,34.1,0,0,0,34.1,68.216l4.338-.3a33.8,33.8,0,0,0,16.752-7.03l.748-.6,1.346-1.2a33.355,33.355,0,0,0,4.188-4.637A34.252,34.252,0,0,0,58.926,10.63Z" transform="translate(0.013 0.021)" fill="#f9f7f3"/>
      </g>
    </g>
  </g>
</svg>
