<svg xmlns="http://www.w3.org/2000/svg" width="100.373" height="95.346" viewBox="0 0 100.373 95.346"><g transform="translate(50.186 47.673)"><g transform="translate(-50.186 -47.673)"><path d="M72.971,65.005a10.7,10.7,0,0,1-15.153,0L35,42.187,42.487,34.7l.535.713L45.7,38.087Z" transform="translate(27.402 27.195)"/><path d="M70.776,42.326A40.645,40.645,0,0,0,25.318,8.456,40.288,40.288,0,0,0,3.034,18.8,40.823,40.823,0,0,0,1.074,43.574,29.949,29.949,0,0,1,12.126,25.213a29.592,29.592,0,0,1,5.883-3.565A29.949,29.949,0,0,1,57.762,61.579,29.592,29.592,0,0,1,45.818,74.592a40.288,40.288,0,0,0,19.966-8.379l1.07,1.07,1.426-3.031a42.248,42.248,0,0,0,2.317-8.2A41.358,41.358,0,0,0,70.776,42.326Z" transform="translate(0.005 6.377)"/><path d="M70.227,12.673A40.651,40.651,0,0,0,7.834,64.548h.178a13.726,13.726,0,0,0,4.1-14.8,30.127,30.127,0,0,1,0-18.183A29.77,29.77,0,0,1,23.165,16.238L25.3,14.812A30.305,30.305,0,0,1,62.562,20.16a33.514,33.514,0,0,1,8.022,28.523,28.166,28.166,0,0,1-9.626,16.935l-3.387,2.317c-9.448,5.348-21.927,4.1-31.2-.891A13.9,13.9,0,0,0,10.865,68.47a40.645,40.645,0,0,0,29.77,12.835l5.17-.357A40.288,40.288,0,0,0,65.771,72.57l.891-.713,1.6-1.426A39.753,39.753,0,0,0,73.258,64.9a40.823,40.823,0,0,0-3.031-52.232Z" transform="translate(0.018 0.021)"/></g></g></svg>