<svg id="Group_158" data-name="Group 158" xmlns="http://www.w3.org/2000/svg" width="79.368" height="80" viewBox="0 0 79.368 80">
  <path id="Path_4145" data-name="Path 4145" d="M55.178,35.253h-.935L41.427,33.785a8.277,8.277,0,0,1-7.343-7.343L32.616,13.625A8.411,8.411,0,0,1,39.825,4.28L58.783.007a8.411,8.411,0,0,1,9.079,9.079V9.62L63.456,27.91a8.411,8.411,0,0,1-8.277,7.209ZM59.584,8.018,40.893,12.156h-.267a.267.267,0,0,0-.133.267L41.961,25.24a.4.4,0,0,0,.267.267l12.817,1.469h.267v-.8l4.539-17.89h-.267Z" transform="translate(10.946 0.022)"/>
  <path id="Path_4146" data-name="Path 4146" d="M59.913,68.758H58.578L40.421,64.352a8.411,8.411,0,0,1-7.209-9.212L34.68,42.323a8.277,8.277,0,0,1,7.343-7.343L54.84,33.512a8.411,8.411,0,0,1,9.212,7.209l4.139,18.825a8.411,8.411,0,0,1-8.277,9.079ZM55.775,41.389h0L42.958,42.857a.4.4,0,0,0-.267.267L41.222,55.941a.267.267,0,0,0,.134.267h.8L60.18,60.48h.267L56.309,41.789v-.267Z" transform="translate(11.151 11.242)"/>
  <path id="Path_4147" data-name="Path 4147" d="M13.19,35.253a8.411,8.411,0,0,1-8.277-7.209L.507,9.086A8.411,8.411,0,0,1,9.586.007h.534L28.544,4.28a8.411,8.411,0,0,1,7.209,9.212L34.285,26.308a8.277,8.277,0,0,1-7.343,7.343L14.125,35.12ZM8.518,8.285,12.79,26.842v.267h.4l12.817-1.469a.4.4,0,0,0,.267-.267l1.469-12.817a.267.267,0,0,0-.134-.267h-.8L8.785,8.018H8.518Z" transform="translate(0.199 0.022)"/>
  <path id="Path_4148" data-name="Path 4148" d="M8.287,68.758A8.411,8.411,0,0,1,.01,59.546v-.534L4.282,40.721a8.411,8.411,0,0,1,9.212-7.209L26.311,34.98a8.277,8.277,0,0,1,7.343,7.343L35.122,55.14a8.411,8.411,0,0,1-7.209,9.212L9.088,68.624ZM8.02,60.48h.267l18.558-4.272h.267a.267.267,0,0,0,.134-.267L25.777,43.124a.4.4,0,0,0-.267-.267l-12.95-1.469h-.267v.8Z" transform="translate(0.029 11.242)"/>
</svg>
