<svg xmlns="http://www.w3.org/2000/svg" viewBox="0 0 53.99 54.28"><defs><style>.cls-1{fill:#1d1d1b;}</style></defs><g id="Layer_2" data-name="Layer 2"><g id="Layer_1-2" data-name="Layer 1"><polygon class="cls-1" points="53.99 9.16 53.99 15.16 44.83 15.16 44.83 24.32 38.83 24.32 38.83 15.16 29.68 15.16 29.68 9.16 38.83 9.16 38.83 0 44.83 0 44.83 9.16 53.99 9.16"/><path class="cls-1" d="M45.23,28.59V42.18a12.1,12.1,0,0,1-12.1,12.1h-21A12.1,12.1,0,0,1,0,42.18v-21A12.11,12.11,0,0,1,12.1,9.06H25.15a6,6,0,0,1-6,6h-7A6.11,6.11,0,0,0,6,21.16v21a6.11,6.11,0,0,0,6.1,6.1h21a6.1,6.1,0,0,0,6.1-6.1V34.59a6,6,0,0,1,6-6Z"/></g></g></svg>