<svg xmlns="http://www.w3.org/2000/svg" width="100.027" height="100.823" viewBox="0 0 100.027 100.823"><g transform="translate(50.014 50.412)"><g transform="translate(-50.014 -50.412)"><path d="M61.067,44.435H59.89L43.737,42.584a10.432,10.432,0,0,1-9.254-9.254L32.632,17.177A10.6,10.6,0,0,1,41.718,5.4L65.61.015A10.6,10.6,0,0,1,77.052,11.456v.673L71.5,35.181a10.6,10.6,0,0,1-10.432,9.086ZM66.62,10.11,43.064,15.326h-.337a.336.336,0,0,0-.168.337L44.41,31.816a.5.5,0,0,0,.337.337L60.9,34h.337v-1.01l5.721-22.547H66.62Z" transform="translate(22.269 0.022)"/><path d="M66.876,77.944H65.193L42.31,72.392a10.6,10.6,0,0,1-9.086-11.61l1.851-16.153a10.432,10.432,0,0,1,9.254-9.254l16.153-1.851a10.6,10.6,0,0,1,11.61,9.086l5.216,23.724A10.6,10.6,0,0,1,66.876,77.776ZM61.66,43.451h0L45.507,45.3a.5.5,0,0,0-.337.337L43.319,61.791a.337.337,0,0,0,.168.337H44.5l22.715,5.384h.337L62.333,43.956v-.337Z" transform="translate(22.686 22.879)"/><path d="M16.5,44.435A10.6,10.6,0,0,1,6.067,35.349L.515,11.456A10.6,10.6,0,0,1,11.956.015h.673L35.849,5.4a10.6,10.6,0,0,1,9.086,11.61L43.084,33.162a10.432,10.432,0,0,1-9.254,9.254L17.677,44.267ZM10.61,10.447l5.384,23.388v.337h.5L32.652,32.32a.5.5,0,0,0,.337-.337L34.84,15.831a.337.337,0,0,0-.168-.337h-1.01L10.947,10.11H10.61Z" transform="translate(0.375 0.022)"/><path d="M10.452,77.944A10.6,10.6,0,0,1,.02,66.334v-.673L5.4,42.61a10.6,10.6,0,0,1,11.61-9.086l16.153,1.851a10.432,10.432,0,0,1,9.254,9.254l1.851,16.153a10.6,10.6,0,0,1-9.086,11.61L11.461,77.776Zm-.337-10.432h.337L33.84,62.128h.337a.337.337,0,0,0,.168-.337L32.493,45.639a.5.5,0,0,0-.337-.337L15.836,43.451H15.5v1.01Z" transform="translate(0.029 22.879)"/></g></g></svg>