<svg xmlns="http://www.w3.org/2000/svg" width="80" height="80.19" viewBox="0 0 80 80.19">
  <path id="Path_4144" data-name="Path 4144" d="M76.738,53.214l-5.6-5.6a11.35,11.35,0,0,0-15.92-.295h-.147a2.506,2.506,0,0,1-2.211.737,25.649,25.649,0,0,1-13.267-7.37,32.577,32.577,0,0,1-7.665-13.562,2.506,2.506,0,0,1,.59-2.359l.442-.442A11.35,11.35,0,0,0,32.516,8.55L27.651,3.39A11.5,11.5,0,0,0,19.544,0h0a11.35,11.35,0,0,0-8.107,3.39L3.329,11.5a11.35,11.35,0,0,0-3.1,10.319,86.529,86.529,0,0,0,13.562,31.25,7.96,7.96,0,0,0,12.087.884h0C14.384,41.569,10.4,26.386,8.93,20.047a2.506,2.506,0,0,1,.737-2.359l8.107-8.107a2.653,2.653,0,0,1,3.685,0l5.012,5.159a2.653,2.653,0,0,1,.147,3.538l-.442.442a11.35,11.35,0,0,0-2.506,10.761,42.159,42.159,0,0,0,9.876,17.394A34.2,34.2,0,0,0,51.236,56.6a11.35,11.35,0,0,0,10.171-2.8h.147a2.506,2.506,0,0,1,3.538,0l5.6,5.6a2.506,2.506,0,0,1,.737,1.916,2.653,2.653,0,0,1-.884,1.769L61.7,70.9a2.653,2.653,0,0,1-2.064.59,56.457,56.457,0,0,1-27.86-12.235,7.813,7.813,0,0,0-10.466.59l-.884.884A64.417,64.417,0,0,0,58.165,80.19h1.769a11.35,11.35,0,0,0,7.37-2.653l9.139-8.107a11.35,11.35,0,0,0,.295-16.215Z"/>
</svg>
