<svg xmlns="http://www.w3.org/2000/svg" width="96.14" height="96.368" viewBox="0 0 96.14 96.368"><g transform="translate(48.07 48.184)"><path d="M92.22,63.95l-6.732-6.732a13.64,13.64,0,0,0-19.132-.354h-.177a3.011,3.011,0,0,1-2.657.886,30.823,30.823,0,0,1-15.943-8.857,39.149,39.149,0,0,1-9.212-16.3,3.012,3.012,0,0,1,.709-2.834l.531-.531a13.64,13.64,0,0,0-.531-18.955l-5.846-6.2A13.817,13.817,0,0,0,23.487,0h0a13.64,13.64,0,0,0-9.743,4.074L4,13.817a13.64,13.64,0,0,0-3.72,12.4,103.985,103.985,0,0,0,16.3,37.555A9.566,9.566,0,0,0,31.1,64.836h0C17.286,49.955,12.5,31.709,10.732,24.092a3.011,3.011,0,0,1,.886-2.834l9.743-9.743a3.189,3.189,0,0,1,4.429,0l6.023,6.2a3.189,3.189,0,0,1,.177,4.252l-.531.531a13.64,13.64,0,0,0-3.011,12.932,50.664,50.664,0,0,0,11.869,20.9A41.1,41.1,0,0,0,61.573,68.024,13.64,13.64,0,0,0,73.8,64.659h.177a3.012,3.012,0,0,1,4.252,0l6.732,6.732a3.011,3.011,0,0,1,.886,2.3,3.189,3.189,0,0,1-1.063,2.126L74.151,85.208a3.189,3.189,0,0,1-2.48.709,67.847,67.847,0,0,1-33.481-14.7,9.389,9.389,0,0,0-12.577.709l-1.063,1.063A77.413,77.413,0,0,0,69.9,96.368h2.126a13.64,13.64,0,0,0,8.857-3.189l10.983-9.743A13.64,13.64,0,0,0,92.22,63.95Z" transform="translate(-48.07 -48.184)"/></g></svg>