<svg xmlns="http://www.w3.org/2000/svg" viewBox="0 0 50.16 50.16"><defs><style>.cls-1{fill:#1d1d1b;}</style></defs><g id="Layer_2" data-name="Layer 2"><g id="Layer_1-2" data-name="Layer 1"><path class="cls-1" d="M38.06,50.16h-26A12.12,12.12,0,0,1,0,38.06v-26A12.12,12.12,0,0,1,12.1,0h26a12.12,12.12,0,0,1,12.1,12.1v26A12.12,12.12,0,0,1,38.06,50.16ZM12.1,6A6.11,6.11,0,0,0,6,12.1v26a6.11,6.11,0,0,0,6.1,6.1h26a6.1,6.1,0,0,0,6.1-6.1v-26A6.11,6.11,0,0,0,38.06,6Z"/><path class="cls-1" d="M25.08,37.42A12.34,12.34,0,1,1,37.42,25.08,12.35,12.35,0,0,1,25.08,37.42Zm0-18.67a6.34,6.34,0,1,0,6.34,6.33A6.34,6.34,0,0,0,25.08,18.75Z"/></g></g></svg>