<svg xmlns="http://www.w3.org/2000/svg" viewBox="0 0 52.16 52.16"><defs><style>.cls-1{fill:none;stroke:#1d1d1b;stroke-miterlimit:10;stroke-width:2px;}</style></defs><g id="Layer_2" data-name="Layer 2"><g id="Layer_1-2" data-name="Layer 1"><path class="cls-1" d="M39.06,51.16h-26A12.12,12.12,0,0,1,1,39.06v-26A12.12,12.12,0,0,1,13.1,1h26a12.12,12.12,0,0,1,12.1,12.1v26A12.12,12.12,0,0,1,39.06,51.16ZM13.1,7A6.11,6.11,0,0,0,7,13.1v26a6.11,6.11,0,0,0,6.1,6.1h26a6.1,6.1,0,0,0,6.1-6.1v-26A6.11,6.11,0,0,0,39.06,7Z"/><path class="cls-1" d="M26.08,38.42A12.34,12.34,0,1,1,38.42,26.08,12.35,12.35,0,0,1,26.08,38.42Zm0-18.67a6.34,6.34,0,1,0,6.34,6.33A6.34,6.34,0,0,0,26.08,19.75Z"/></g></g></svg>