<svg xmlns="http://www.w3.org/2000/svg" viewBox="0 0 52.78 42.88"><defs><style>.cls-1{fill:#1d1d1b;}</style></defs><g id="Layer_2" data-name="Layer 2"><g id="Layer_1-2" data-name="Layer 1"><path id="Bird" class="cls-1" d="M46.51,6.6A10.23,10.23,0,0,0,51.13.66,21.65,21.65,0,0,1,44.2,3.3,11.52,11.52,0,0,0,36.29,0,11,11,0,0,0,25.4,10.89a4.85,4.85,0,0,0,.33,2.3A30.33,30.33,0,0,1,3.3,2,10.85,10.85,0,0,0,2,7.59a10.81,10.81,0,0,0,4.95,8.9A13.83,13.83,0,0,1,2,15.17H2a10.65,10.65,0,0,0,8.58,10.56c-.66,0-1.65.33-2.64.33a4.19,4.19,0,0,1-2-.33,10.69,10.69,0,0,0,10.22,7.59A21,21,0,0,1,2.64,37.93H0a31.9,31.9,0,0,0,15.5,5h2.64c18.8-1,29.36-16.82,29.36-30.67V10.89a21.38,21.38,0,0,0,5.28-5.61h0C50.8,5.61,48.82,6.27,46.51,6.6Z"/></g></g></svg>