<svg xmlns="http://www.w3.org/2000/svg" viewBox="0 0 62.88 70.56"><defs><style>.cls-1{fill:#1d1d1b;}</style></defs><g id="Layer_2" data-name="Layer 2"><g id="Layer_1-2" data-name="Layer 1"><path class="cls-1" d="M39.52,60.42l.19,10.14h0c-9,.16-16.32-5.54-16.46-12.73l-.18-10.14h0C32,47.52,39.39,53.22,39.52,60.42Z"/><path class="cls-1" d="M62.77,0C62.77,15.09,61,21.05,44,22.11c-5.1.31-37.64-2.95-31.36,13.18C3.73,31-3.47,23.14,1.78,14.68,6.16,8.33,17,8.48,26.25,7.78,41.37,6.64,54.24,5.44,62.77,0Z"/><path class="cls-1" d="M62.77,31.18c0,8.44,1.74,18.43-9.84,18.43-8.63,0-6-9.66-16.39-11.1C43.37,32.4,55,37.85,62.77,31.18Z"/></g></g></svg>