<svg xmlns="http://www.w3.org/2000/svg" viewBox="0 0 366.62 90.79"><defs><style>.cls-1{fill:#1d1d1b;}</style></defs><g id="Layer_2" data-name="Layer 2"><g id="Layer_1-2" data-name="Layer 1"><path d="M73.3,16.5a7.16,7.16,0,0,1,14.29,0,7.15,7.15,0,0,1-14.29,0ZM86.13,30.44h0V59.28A11.28,11.28,0,0,1,74.85,70.56h0V41.72A11.28,11.28,0,0,1,86.13,30.44Z"/><path d="M124.52,30.7l-2.58,10.76A11.71,11.71,0,0,0,116.17,40c-5.77,0-9.73,5.34-9.73,16.79V70.56h0A11.28,11.28,0,0,1,95.17,59.28V30.44h11.19V39c2.24-6.72,6.8-9.56,11.79-9.56A14.28,14.28,0,0,1,124.52,30.7Z"/><path d="M166.88,54.12h-30.3c1.2,4.65,5,7.23,10.41,7.23a15.24,15.24,0,0,0,4.94-.82A11.27,11.27,0,0,1,163.66,63l.46.46c-3.78,5.08-10.84,7.84-17.9,7.84-12.31,0-21.35-8.44-21.35-20.84,0-13,9.81-21.09,21.35-21.09s20.83,8.09,20.83,20.4C167.05,50.93,167,52.31,166.88,54.12ZM155.77,46.8c-.34-4.74-4.3-7.58-9.38-7.58-4.56,0-8.61,2.16-9.81,7.58Z"/><path d="M204.42,70.56h0v-51h-7.75c-6.46,0-8.52,3.53-8.61,8.35v2.58h.09a8.7,8.7,0,0,1,8.69,8.7h-8.78V70.56h0a11.28,11.28,0,0,1-11.28-11.28V39.14h0a7.57,7.57,0,0,1-7.57-7.58V30.44h7.57V28C176.78,15.89,183,9,194.43,9h21.35V59.2A11.37,11.37,0,0,1,204.42,70.56Z"/><path d="M223.27,16.5a7.16,7.16,0,0,1,14.29,0,7.15,7.15,0,0,1-14.29,0Zm1.55,13.94h0A11.28,11.28,0,0,1,236.1,41.72V70.56h0a11.28,11.28,0,0,1-11.28-11.28Z"/><path d="M286.64,30.44V65.05c0,17.56-8.87,25.74-23.08,25.74A21.32,21.32,0,0,1,244,78.57h0a16.33,16.33,0,0,1,14.15.78,11.56,11.56,0,0,0,5.39,1.37c7.23,0,11.8-4,11.8-14.46v-.61c-2.93,3.88-8.44,5.69-12.92,5.69-10.33,0-19.71-8-19.71-20.92s9.38-20.92,19.71-20.92c4.57,0,10,1.8,12.92,5.68V30.44ZM275,50.42A10.42,10.42,0,1,0,264.6,60.83,10.37,10.37,0,0,0,275,50.42Z"/><path d="M334.93,48.52v22h0a11.28,11.28,0,0,1-11.27-11.28V49.73c0-6.37-3.79-9.21-7.67-9.21-4,0-9,2.15-9,9.46v9.3a11.27,11.27,0,0,1-11.27,11.28h0V20.28A11.28,11.28,0,0,1,307,9h0V36.73c1.73-5.08,8.18-7.32,12.06-7.32C329.51,29.41,335,36.47,334.93,48.52Z"/><path d="M366.62,39.14h-8.53V59.28a11.28,11.28,0,0,1-11.27,11.28h0V39.14H339.5v-8.7h7.32V27a11.27,11.27,0,0,1,11.27-11.28h0V30.44h8.53Z"/><path class="cls-1" d="M39.52,60.42l.19,10.14h0c-9,.16-16.32-5.54-16.46-12.73l-.18-10.14h0C32,47.52,39.39,53.22,39.52,60.42Z"/><path class="cls-1" d="M62.77,0C62.77,15.09,61,21.05,44,22.11c-5.1.31-37.64-2.95-31.36,13.18C3.73,31-3.47,23.14,1.78,14.68,6.16,8.33,17,8.48,26.25,7.78,41.37,6.64,54.24,5.44,62.77,0Z"/><path class="cls-1" d="M62.77,31.18c0,8.44,1.74,18.43-9.84,18.43-8.63,0-6-9.66-16.39-11.1C43.37,32.4,55,37.85,62.77,31.18Z"/></g></g></svg>