<svg xmlns="http://www.w3.org/2000/svg" width="94.322" height="129.511" viewBox="0 0 94.322 129.511"><g transform="translate(47.161 64.756)"><g transform="translate(-47.161 -64.756)"><path d="M27.68,32.4A16.2,16.2,0,0,1,12.3,21.11h0A16.2,16.2,0,1,1,27.843,32.4Zm0-22.583H26.043A6.421,6.421,0,0,0,21.461,18h0a6.459,6.459,0,0,0,12.274,0A6.382,6.382,0,0,0,27.68,9.819Z" transform="translate(7.29 0)"/><path d="M12.344,66.557a34.2,34.2,0,0,1,6.873-17.838A37.8,37.8,0,0,1,49.655,33.5v3.273a7.364,7.364,0,0,1-6.055,7.2h0a27.984,27.984,0,0,0-16.037,9.983A25.365,25.365,0,0,0,22,67.7h0a28.311,28.311,0,0,0,5.728,20.292,27.166,27.166,0,0,0,10.8,8.182A27.493,27.493,0,0,0,73.875,83.413a11.455,11.455,0,0,1,12.274-5.728h0A37.475,37.475,0,0,1,18.89,92.413a38.13,38.13,0,0,1-6.71-25.856Z" transform="translate(7.57 21.322)" fill="#010103"/><path d="M28.9,99.141A34.2,34.2,0,0,1,15.974,85.067a37.8,37.8,0,0,1,0-34.039L18.92,52.5a7.364,7.364,0,0,1,3.764,8.51h0a27.984,27.984,0,0,0,1.8,18.819A25.365,25.365,0,0,0,34.3,90.958h0a28.311,28.311,0,0,0,20.783,3.928A27.165,27.165,0,0,0,67.36,88.994a27.493,27.493,0,0,0,4.418-37.312A11.455,11.455,0,0,1,72.106,38.1h0a37.475,37.475,0,0,1-17.019,66.768A38.13,38.13,0,0,1,28.9,99.141Z" transform="translate(7.54 24.249)" fill="#010103"/><path d="M74.105,60.743A34.2,34.2,0,0,1,67.232,78.58,37.8,37.8,0,0,1,36.793,93.8V90.527a7.364,7.364,0,0,1,6.055-7.2h0a27.984,27.984,0,0,0,16.037-9.982A25.366,25.366,0,0,0,64.45,59.761h0a28.311,28.311,0,0,0-5.728-20.456,27.165,27.165,0,0,0-10.8-8.182,27.493,27.493,0,0,0-35.348,12.6A11.455,11.455,0,0,1,.3,49.615h0A37.475,37.475,0,0,1,67.559,34.887a38.13,38.13,0,0,1,6.546,25.856Z" transform="translate(0.14 12.244)" fill="#010103"/><path d="M57.911,25.281A34.2,34.2,0,0,1,70.839,39.354a37.8,37.8,0,0,1,0,34.039L67.894,71.92a7.364,7.364,0,0,1-3.764-8.51h0a27.984,27.984,0,0,0-1.8-18.819,25.366,25.366,0,0,0-9.819-11.128h0a28.311,28.311,0,0,0-20.783-3.928,27.165,27.165,0,0,0-12.11,6.055,27.493,27.493,0,0,0-4.582,37.148,11.455,11.455,0,0,1-.327,13.583h0A37.475,37.475,0,0,1,31.728,19.553,38.13,38.13,0,0,1,57.911,25.281Z" transform="translate(-0.031 12.194)" fill="#010103"/></g></g></svg>