<svg xmlns="http://www.w3.org/2000/svg" width="109.114" height="84.378" viewBox="0 0 109.114 84.378"><g transform="translate(54.557 42.189)"><g transform="translate(-54.557 -42.189)"><path d="M109.138,74.3a9.558,9.558,0,0,1-6.038,8.887,15.761,15.761,0,0,1-5.867,1.173h-.168c-6.539,0-10.9-4.527-14.252-8.216s-5.2-5.2-7.545-5.2h0a7.88,7.88,0,0,0-3.018.671c-2.347,1.006-10.4,7.545-10.563,7.713a41.08,41.08,0,0,1-8.048,3.186A42.065,42.065,0,0,1,4.006,24.161l.5-1.174v-.335L5.85,20.3A41.919,41.919,0,0,1,22.618,4.543,43.26,43.26,0,0,1,52.8,1.357,40.578,40.578,0,0,1,59,3.369h.5a37.391,37.391,0,0,1,12.24,8.384,42.589,42.589,0,0,1,12.24,36.553L80.3,47.8a8.384,8.384,0,0,1-7.042-7.881h0a31.523,31.523,0,0,0-8.719-19.45,28.672,28.672,0,0,0-14.42-8.384,33.87,33.87,0,0,0-7.881-1.006A30.852,30.852,0,0,0,15.576,26l-1.006,1.844H14.4A32.7,32.7,0,0,0,11.048,42.1a30.014,30.014,0,0,0,1.006,7.378,31.187,31.187,0,0,0,38.565,22.3,30.013,30.013,0,0,0,5.366-2.012c7.21-6.875,13.414-10.06,19.283-10.06h.168c7.21,0,11.737,4.863,15.426,8.719s4.695,4.695,6.372,4.695h0c1.174,0,4.024-.838,9.054-5.869a9.557,9.557,0,0,1,2.85,7.042Z" transform="translate(-0.027 0.023)"/><path d="M22,44.883V17.72a3.521,3.521,0,0,1,6.2-2.515L41.789,28.786a3.521,3.521,0,0,1,0,5.03L28.207,47.4A3.521,3.521,0,0,1,22,44.883Z" transform="translate(14.84 9.482)"/></g></g></svg>