<svg id="Group_162" data-name="Group 162" xmlns="http://www.w3.org/2000/svg" width="80" height="109.846" viewBox="0 0 80 109.846">
  <path id="Path_4154" data-name="Path 4154" d="M25.228,27.482a13.741,13.741,0,0,1-13.047-9.577h0a13.741,13.741,0,1,1,13.186,9.577Zm0-19.154H23.84a5.446,5.446,0,0,0-3.886,6.94h0a5.478,5.478,0,0,0,10.41,0,5.413,5.413,0,0,0-5.136-6.94Z" transform="translate(4.432 0)"/>
  <path id="Path_4155" data-name="Path 4155" d="M12.288,61.537a29.009,29.009,0,0,1,5.83-15.129A32.063,32.063,0,0,1,43.934,33.5v2.776A6.246,6.246,0,0,1,38.8,42.383h0A23.735,23.735,0,0,0,25.2,50.85a21.514,21.514,0,0,0-4.719,11.659h0A24.012,24.012,0,0,0,25.335,79.72,23.041,23.041,0,0,0,34.5,86.66,23.318,23.318,0,0,0,64.476,75.834a9.716,9.716,0,0,1,10.41-4.858h0A31.785,31.785,0,0,1,17.84,83.468a32.34,32.34,0,0,1-5.691-21.93Z" transform="translate(4.602 12.997)" fill="#010103"/>
  <path id="Path_4156" data-name="Path 4156" d="M26.325,89.872A29.009,29.009,0,0,1,15.36,77.935a32.063,32.063,0,0,1,0-28.87l2.5,1.249a6.246,6.246,0,0,1,3.192,7.218h0a23.735,23.735,0,0,0,1.527,15.962,21.514,21.514,0,0,0,8.328,9.438h0a24.012,24.012,0,0,0,17.627,3.331,23.041,23.041,0,0,0,10.41-5A23.318,23.318,0,0,0,62.69,49.62a9.716,9.716,0,0,1,.278-11.52h0A31.785,31.785,0,0,1,48.533,94.73a32.34,32.34,0,0,1-22.208-4.858Z" transform="translate(4.584 14.782)" fill="#010103"/>
  <path id="Path_4157" data-name="Path 4157" d="M62.9,54.441a29.009,29.009,0,0,1-5.83,15.129A32.063,32.063,0,0,1,31.252,82.478V79.7a6.246,6.246,0,0,1,5.136-6.107h0a23.735,23.735,0,0,0,13.6-8.467,21.514,21.514,0,0,0,4.719-11.52h0a24.012,24.012,0,0,0-4.858-17.35,23.041,23.041,0,0,0-9.161-6.94A23.318,23.318,0,0,0,10.71,40.005,9.716,9.716,0,0,1,.3,45h0A31.785,31.785,0,0,1,57.346,32.51,32.34,32.34,0,0,1,62.9,54.441Z" transform="translate(0.073 7.464)" fill="#010103"/>
  <path id="Path_4158" data-name="Path 4158" d="M49.123,24.351A29.009,29.009,0,0,1,60.088,36.288a32.063,32.063,0,0,1,0,28.87l-2.5-1.249A6.246,6.246,0,0,1,54.4,56.691h0A23.735,23.735,0,0,0,52.87,40.73a21.514,21.514,0,0,0-8.328-9.438h0A24.012,24.012,0,0,0,26.915,27.96,23.041,23.041,0,0,0,16.644,33.1,23.318,23.318,0,0,0,12.757,64.6a9.716,9.716,0,0,1-.278,11.52h0a31.785,31.785,0,0,1,14.435-56.63A32.34,32.34,0,0,1,49.123,24.351Z" transform="translate(-0.031 7.433)" fill="#010103"/>
</svg>
